<svg xmlns="http://www.w3.org/2000/svg" xml:space="preserve" width="100" height="50px" version="1.1" style="shape-rendering:geometricPrecision; text-rendering:geometricPrecision; image-rendering:optimizeQuality; fill-rule:evenodd; clip-rule:evenodd"
viewBox="0 0 142.279 49.976"
 xmlns:xlink="http://www.w3.org/1999/xlink"
 xmlns:xodm="http://www.corel.com/coreldraw/odm/2003">
 <defs>
  <style type="text/css">
   <![CDATA[
    .str0 {stroke:#2597A7;stroke-width:0.215;stroke-miterlimit:22.9256}
    .fil0 {fill:#053D3A}
    .fil2 {fill:#2597A7}
    .fil1 {fill:#2597A7;fill-rule:nonzero}
   ]]>
  </style>
 </defs>
 <g id="Layer_x0020_1">
  <metadata id="CorelCorpID_0Corel-Layer"/>
  <g id="_48959163392">
   <g>
    <path class="fil0" d="M29.731 21.382c-0.784,2.078 -1.89,3.835 -3.332,5.262 -1.441,1.428 -3.079,2.492 -4.906,3.185 -1.82,0.7 -3.723,1.05 -5.704,1.05 -2.694,0 -5.256,-0.63 -7.67,-1.876 -2.422,-1.253 -4.382,-3.079 -5.88,-5.48 -1.49,-2.393 -2.239,-5.235 -2.239,-8.517 0,-2.709 0.651,-5.194 1.967,-7.461 1.308,-2.275 3.261,-4.094 5.844,-5.466 2.582,-1.372 5.676,-2.072 9.287,-2.079 0.735,0 1.813,0.098 3.226,0.301 1.421,0.21 2.786,0.595 4.116,1.169 1.323,0.574 2.106,1.386 2.337,2.421l1.106 3.962c0.071,0.286 0.105,0.553 0.105,0.798 0,0.315 -0.063,0.552 -0.175,0.728 -0.119,0.168 -0.273,0.251 -0.462,0.251 -0.329,0 -0.643,-0.216 -0.944,-0.65 -0.246,-0.385 -0.617,-0.966 -1.107,-1.743 -0.916,-1.476 -1.714,-2.66 -2.386,-3.541 -0.679,-0.882 -1.504,-1.624 -2.471,-2.233 -0.972,-0.609 -2.099,-0.917 -3.387,-0.931l-0.084 0c-1.897,0 -3.59,0.658 -5.081,1.987 -1.491,1.323 -2.646,3.066 -3.457,5.229 -0.812,2.162 -1.219,4.451 -1.219,6.866l0 0.329c0.056,2.925 0.631,5.445 1.73,7.559 1.105,2.113 2.526,3.709 4.276,4.786 1.749,1.079 3.611,1.617 5.577,1.617 2.164,0 4.179,-0.651 6.062,-1.952 1.875,-1.309 3.338,-3.199 4.374,-5.67 0.084,-0.182 0.189,-0.272 0.308,-0.272 0.126,0 0.196,0.076 0.21,0.231 0,0.055 -0.007,0.098 -0.021,0.14zm101.945 -11.605c1.931,0 3.702,0.476 5.326,1.435 1.617,0.959 2.904,2.247 3.849,3.878 0.952,1.624 1.428,3.408 1.428,5.347 0,1.931 -0.476,3.709 -1.428,5.347 -0.945,1.631 -2.232,2.925 -3.849,3.87 -1.624,0.952 -3.395,1.428 -5.326,1.428 -1.911,0 -3.681,-0.476 -5.298,-1.428 -1.617,-0.945 -2.905,-2.239 -3.857,-3.87 -0.951,-1.638 -1.42,-3.416 -1.42,-5.347 0,-1.939 0.469,-3.723 1.42,-5.347 0.952,-1.631 2.24,-2.919 3.857,-3.878 1.617,-0.959 3.387,-1.435 5.298,-1.435zm0 0.533c-1.75,0 -3.072,0.93 -3.968,2.799 -0.896,1.869 -1.337,4.311 -1.337,7.328 0,1.903 0.182,3.618 0.56,5.137 0.377,1.526 0.958,2.736 1.756,3.632 0.791,0.896 1.785,1.344 2.989,1.344 1.82,0 3.163,-0.952 4.031,-2.863 0.868,-1.903 1.302,-4.325 1.302,-7.25 0,-1.911 -0.175,-3.647 -0.525,-5.208 -0.343,-1.553 -0.917,-2.764 -1.701,-3.624 -0.784,-0.862 -1.82,-1.295 -3.107,-1.295zm-18.853 -8.084l0.001 2.775 -0.001 0 0 4.446 2.676 0c0.385,0 0.7,0.315 0.7,0.7 0,0.384 -0.315,0.699 -0.7,0.699l-2.676 0 0 6.68 0.01 0 0.01 6.074c0,2.058 0.133,3.611 0.399,4.654 0.265,1.036 0.636,1.554 1.12,1.554 0.861,0 1.98,-1.54 3.359,-4.633l1.21 -2.744c0.085,-0.196 0.197,-0.335 0.337,-0.434 0.147,-0.098 0.293,-0.14 0.441,-0.14 0.182,0 0.328,0.063 0.455,0.19 0.119,0.132 0.181,0.3 0.181,0.503 0,0.112 -0.013,0.217 -0.042,0.329l-0.902 5.396c-0.077,0.49 -0.315,0.917 -0.707,1.281 -0.385,0.357 -0.812,0.616 -1.281,0.763 -1.134,0.357 -2.24,0.539 -3.317,0.539 -2.002,0 -3.64,-0.63 -4.935,-1.875 -1.294,-1.253 -1.938,-3.228 -1.938,-5.922l0 -5.211 0 -4.309 0 -2.695 -3.032 0c-0.385,0 -0.699,-0.315 -0.699,-0.699 0,-0.385 0.314,-0.7 0.699,-0.7l3.032 0 0 -3.434 0 -0.544 -0.024 0 0 -0.185c0,-1.008 -0.035,-1.735 -0.105,-2.169 -0.063,-0.441 -0.175,-0.722 -0.336,-0.854 -0.154,-0.126 -0.42,-0.203 -0.791,-0.21 -0.245,-0.028 -0.364,-0.119 -0.364,-0.259 0,-0.147 0.119,-0.224 0.364,-0.238 0.616,-0.014 1.162,-0.084 1.645,-0.203 0.476,-0.126 1.036,-0.308 1.68,-0.553 0.629,-0.245 1.169,-0.427 1.631,-0.546 0.454,-0.112 0.972,-0.175 1.547,-0.175l0.328 -0.021 0 2.17 0.025 0zm-7.819 22.109c-0.791,1.981 -2.037,3.521 -3.731,4.612 -1.701,1.099 -3.569,1.701 -5.613,1.82 -2.044,0.112 -3.996,-0.238 -5.865,-1.057 -1.862,-0.826 -3.38,-2.065 -4.555,-3.737 -1.177,-1.666 -1.764,-3.661 -1.764,-5.984 0,-1.834 0.475,-3.52 1.434,-5.068 0.952,-1.539 2.366,-2.785 4.235,-3.716 1.861,-0.938 4.101,-1.406 6.711,-1.406 0.532,-0.014 1.316,0.049 2.338,0.196 1.029,0.139 2.015,0.405 2.974,0.797 0.959,0.392 1.526,0.938 1.701,1.652l0.798 2.688c0.139,0.637 0.077,1.028 -0.189,1.154 -0.273,0.133 -0.56,0 -0.875,-0.398 -0.161,-0.231 -0.413,-0.588 -0.734,-1.064 -0.673,-1.001 -1.253,-1.799 -1.743,-2.394 -0.497,-0.595 -1.099,-1.092 -1.807,-1.49 -0.713,-0.406 -1.546,-0.617 -2.504,-0.63 -1.408,-0.014 -2.66,0.433 -3.752,1.336 -1.092,0.896 -1.932,2.092 -2.52,3.576 -0.587,1.485 -0.868,3.059 -0.839,4.724 0.056,2.556 0.727,4.648 2.015,6.279 1.295,1.624 2.842,2.638 4.633,3.03 1.799,0.399 3.577,0.169 5.326,-0.692 1.75,-0.862 3.073,-2.304 3.976,-4.312 0.07,-0.147 0.154,-0.203 0.266,-0.175 0.112,0.035 0.139,0.126 0.084,0.259zm-30.207 -7.405c0,-2.351 -0.386,-4.038 -1.169,-5.06 -0.777,-1.029 -1.764,-1.547 -2.947,-1.56 -1.259,0.013 -2.233,0.454 -2.925,1.315 -0.694,0.861 -1.001,1.932 -0.924,3.226 0.077,1.295 0.601,2.478 1.568,3.556 0.167,0.196 0.231,0.35 0.196,0.462 -0.035,0.119 -0.168,0.147 -0.4,0.091 -1.623,-0.363 -2.834,-1.043 -3.618,-2.037 -0.783,-0.994 -1.057,-2.029 -0.818,-3.114 0.237,-1.092 1.028,-2.03 2.365,-2.82 1.344,-0.792 3.114,-1.19 5.333,-1.19 1.568,0 3.03,0.286 4.374,0.861 1.351,0.573 2.443,1.462 3.283,2.666 0.839,1.204 1.266,2.709 1.28,4.528l0.022 9.35c0,1.421 0.671,2.156 2.008,2.198 0.182,0 0.26,0.056 0.245,0.175 -0.014,0.112 -0.091,0.196 -0.245,0.252 -1.049,0.399 -2.169,0.679 -3.352,0.854 -1.183,0.168 -2.191,0.105 -3.024,-0.189 -0.832,-0.294 -1.252,-0.896 -1.252,-1.813l0 -2.296c-0.574,1.575 -1.547,2.744 -2.919,3.514 -1.372,0.777 -2.827,1.113 -4.367,1.015 -1.54,-0.091 -2.856,-0.581 -3.947,-1.456 -1.092,-0.875 -1.638,-2.03 -1.638,-3.464 0,-1.463 0.392,-2.562 1.176,-3.311 0.783,-0.741 1.729,-1.238 2.82,-1.484 1.092,-0.244 2.499,-0.433 4.22,-0.552 1.386,-0.112 2.436,-0.246 3.171,-0.399 0.679,-0.151 1.176,-0.405 1.484,-0.774l0 -2.544zm0 3.016c-0.161,0.186 -0.378,0.337 -0.651,0.455 -0.427,0.175 -1.057,0.357 -1.89,0.554 -0.994,0.231 -1.82,0.476 -2.456,0.735 -0.644,0.258 -1.19,0.707 -1.645,1.337 -0.448,0.622 -0.665,1.483 -0.637,2.582 0.028,1.218 0.413,2.121 1.162,2.715 0.742,0.595 1.596,0.819 2.554,0.679 0.952,-0.147 1.785,-0.658 2.498,-1.532 0.715,-0.875 1.065,-2.03 1.065,-3.465l0 -2.855 0 -2.044 0 -2.177 0 3.016zm-44.184 0.183c0,-2.226 0.567,-4.123 1.7,-5.69 1.134,-1.561 2.59,-2.737 4.368,-3.521 1.778,-0.79 3.618,-1.182 5.522,-1.182 1.91,0 3.604,0.384 5.088,1.161 1.484,0.771 2.477,1.862 2.982,3.269l-13.452 -0.063c-0.764,1.651 -1.12,3.359 -1.064,5.109 0.056,1.826 0.49,3.478 1.309,4.941 0.826,1.463 1.875,2.604 3.163,3.429 1.281,0.834 2.632,1.26 4.045,1.288 1.414,0.021 2.723,-0.42 3.927,-1.322 1.203,-0.91 2.135,-2.303 2.792,-4.179 0.077,-0.217 0.182,-0.315 0.316,-0.287 0.133,0.028 0.188,0.133 0.174,0.308 -0.462,2.163 -1.463,3.863 -2.995,5.109 -1.533,1.246 -3.311,1.981 -5.347,2.205 -2.037,0.224 -4.025,-0.049 -5.95,-0.812 -1.924,-0.763 -3.506,-1.988 -4.737,-3.667 -1.232,-1.687 -1.841,-3.717 -1.841,-6.096zm16.608 -6.992c-0.455,-1.091 -1.148,-1.869 -2.086,-2.324 -0.938,-0.462 -1.96,-0.616 -3.065,-0.483 -1.106,0.141 -2.121,0.518 -3.052,1.141 -0.93,0.623 -1.602,1.379 -2.009,2.282l10.212 -0.616zm12.262 13.515c0,1.119 0.035,1.924 0.112,2.421 0.077,0.49 0.182,0.798 0.329,0.924 0.14,0.119 0.378,0.203 0.707,0.245 0.028,0 0.049,0 0.063,0 0.258,0.056 0.385,0.154 0.377,0.308 -0.006,0.147 -0.132,0.224 -0.377,0.224l-8 0c-0.161,0 -0.28,-0.042 -0.35,-0.133 -0.063,-0.091 -0.07,-0.175 -0.007,-0.259 0.063,-0.077 0.182,-0.126 0.357,-0.14 0,0 0.007,0 0.021,0 0.399,-0.028 0.665,-0.098 0.812,-0.217 0.14,-0.119 0.245,-0.406 0.294,-0.868 0.056,-0.469 0.084,-1.301 0.084,-2.505l-0.021 -21.368c0,-1.008 -0.035,-1.735 -0.105,-2.169 -0.063,-0.441 -0.175,-0.722 -0.336,-0.854 -0.154,-0.126 -0.42,-0.203 -0.791,-0.21 -0.245,-0.028 -0.363,-0.119 -0.363,-0.259 0,-0.147 0.118,-0.224 0.363,-0.238 0.616,-0.014 1.162,-0.084 1.645,-0.203 0.476,-0.126 1.036,-0.308 1.679,-0.553 0.63,-0.245 1.169,-0.427 1.631,-0.546 0.455,-0.112 0.973,-0.175 1.547,-0.175l0.329 -0.021 0 26.596z"/>
   </g>
   <path class="fil1" d="M86.642 35.617c0,0 -0.112,-0.003 -0.335,-0.006 -0.184,0 -0.275,0 -0.275,0l1.314 0c0.804,0 1.487,0.125 2.053,0.381 0.569,0.255 0.997,0.589 1.285,1.006 0.29,0.413 0.434,0.859 0.434,1.335 0,0.498 -0.159,0.973 -0.481,1.422 -0.32,0.449 -0.801,0.816 -1.438,1.097 -0.639,0.278 -1.407,0.419 -2.308,0.419l-1.461 0 0 5.5c0,0.464 0.018,0.801 0.053,1.009 0.033,0.211 0.083,0.343 0.144,0.402 0.064,0.056 0.167,0.091 0.311,0.103 0.05,0.005 0.091,0.017 0.114,0.038 0.027,0.02 0.041,0.044 0.041,0.073 0,0.03 -0.014,0.053 -0.041,0.074 -0.023,0.02 -0.064,0.029 -0.114,0.029l-3.361 0c-0.05,0 -0.092,-0.009 -0.121,-0.029 -0.029,-0.021 -0.041,-0.044 -0.041,-0.074 0,-0.029 0.012,-0.056 0.041,-0.079 0.029,-0.021 0.071,-0.032 0.121,-0.032 0.143,0 0.252,-0.027 0.328,-0.083 0.073,-0.055 0.123,-0.179 0.144,-0.372 0.023,-0.196 0.035,-0.549 0.035,-1.059l0 -9.427c0,-0.504 -0.012,-0.853 -0.035,-1.047 -0.021,-0.197 -0.065,-0.32 -0.13,-0.37 -0.061,-0.053 -0.175,-0.082 -0.342,-0.094 -0.109,-0.006 -0.162,-0.044 -0.162,-0.111 0,-0.03 0.012,-0.053 0.041,-0.074 0.029,-0.02 0.071,-0.031 0.121,-0.031l4.065 0zm-0.704 0.216c-0.156,0 -0.267,0.027 -0.331,0.085 -0.065,0.059 -0.112,0.188 -0.138,0.391 -0.027,0.205 -0.039,0.548 -0.039,1.035l0 3.714 0.775 -0.009c0.542,0 1.012,-0.132 1.405,-0.396 0.39,-0.264 0.686,-0.605 0.882,-1.021 0.2,-0.42 0.297,-0.863 0.297,-1.332 0,-0.431 -0.085,-0.836 -0.261,-1.214 -0.176,-0.375 -0.431,-0.681 -0.774,-0.909 -0.341,-0.229 -0.754,-0.344 -1.241,-0.344l-0.575 0zm12.005 7.776c0,-0.877 -0.12,-1.581 -0.361,-2.115 -0.24,-0.53 -0.548,-0.891 -0.921,-1.076 -0.372,-0.188 -0.756,-0.226 -1.149,-0.117 -0.397,0.108 -0.74,0.331 -1.033,0.671l0 5.808c0,0.469 0.015,0.807 0.047,1.015 0.032,0.205 0.076,0.334 0.138,0.387 0.058,0.05 0.158,0.085 0.296,0.103 0.012,0 0.021,0 0.026,0 0.109,0.023 0.162,0.064 0.159,0.129 -0.003,0.061 -0.056,0.094 -0.159,0.094l-3.352 0c-0.067,0 -0.117,-0.018 -0.147,-0.056 -0.026,-0.038 -0.029,-0.074 -0.003,-0.109 0.027,-0.032 0.077,-0.053 0.15,-0.058 0,0 0.003,0 0.009,0 0.167,-0.012 0.279,-0.042 0.34,-0.091 0.058,-0.05 0.102,-0.171 0.123,-0.364 0.023,-0.196 0.035,-0.545 0.035,-1.05l-0.009 -8.955c0,-0.422 -0.014,-0.728 -0.044,-0.909 -0.026,-0.185 -0.073,-0.302 -0.14,-0.358 -0.065,-0.053 -0.176,-0.085 -0.331,-0.088 -0.103,-0.012 -0.153,-0.05 -0.153,-0.109 0,-0.061 0.05,-0.094 0.153,-0.099 0.258,-0.006 0.486,-0.036 0.688,-0.085 0.2,-0.053 0.435,-0.129 0.705,-0.232 0.264,-0.103 0.489,-0.179 0.683,-0.229 0.191,-0.047 0.408,-0.073 0.648,-0.073l0.138 -0.009 0 5.054c0.422,-0.44 0.965,-0.737 1.619,-0.88 0.657,-0.147 1.308,-0.109 1.951,0.111 0.645,0.22 1.179,0.643 1.598,1.267 0.423,0.625 0.634,1.438 0.634,2.441l0.005 3.153c0,0.469 0.018,0.807 0.05,1.015 0.03,0.205 0.077,0.334 0.135,0.387 0.062,0.05 0.162,0.085 0.297,0.103 0.011,0 0.02,0 0.026,0 0.109,0.023 0.161,0.064 0.159,0.129 -0.003,0.061 -0.056,0.094 -0.159,0.094l-3.35 0c-0.07,0 -0.117,-0.018 -0.146,-0.056 -0.029,-0.038 -0.029,-0.074 -0.006,-0.109 0.027,-0.032 0.076,-0.053 0.152,-0.058 0,0 0.003,0 0.009,0 0.164,-0.012 0.279,-0.042 0.337,-0.091 0.062,-0.05 0.103,-0.171 0.127,-0.364 0.023,-0.196 0.035,-0.545 0.035,-1.05l-0.009 -3.171zm8.762 -0.903c0,-0.986 -0.162,-1.692 -0.491,-2.121 -0.325,-0.431 -0.738,-0.648 -1.234,-0.654 -0.528,0.006 -0.936,0.191 -1.226,0.552 -0.291,0.36 -0.42,0.809 -0.387,1.352 0.032,0.542 0.252,1.038 0.657,1.49 0.07,0.082 0.097,0.147 0.082,0.193 -0.015,0.05 -0.071,0.062 -0.167,0.038 -0.681,-0.152 -1.188,-0.437 -1.517,-0.853 -0.328,-0.416 -0.443,-0.851 -0.343,-1.306 0.1,-0.457 0.431,-0.85 0.991,-1.181 0.564,-0.332 1.306,-0.499 2.236,-0.499 0.656,0 1.269,0.12 1.833,0.361 0.566,0.24 1.023,0.613 1.376,1.117 0.351,0.505 0.53,1.136 0.536,1.898l0.009 3.919c0,0.595 0.281,0.903 0.842,0.921 0.076,0 0.108,0.023 0.102,0.073 -0.006,0.047 -0.038,0.082 -0.102,0.105 -0.44,0.168 -0.91,0.285 -1.405,0.359 -0.496,0.07 -0.918,0.044 -1.268,-0.08 -0.348,-0.123 -0.524,-0.375 -0.524,-0.759l0 -0.963c-0.241,0.661 -0.649,1.15 -1.223,1.473 -0.575,0.325 -1.185,0.466 -1.831,0.425 -0.645,-0.038 -1.196,-0.243 -1.654,-0.61 -0.458,-0.366 -0.687,-0.851 -0.687,-1.452 0,-0.613 0.165,-1.073 0.493,-1.387 0.329,-0.311 0.725,-0.519 1.183,-0.622 0.457,-0.103 1.047,-0.182 1.768,-0.232 0.581,-0.047 1.021,-0.102 1.329,-0.167 0.305,-0.067 0.522,-0.185 0.648,-0.358l0.062 0.094c-0.065,0.144 -0.185,0.252 -0.361,0.329 -0.179,0.073 -0.443,0.149 -0.792,0.231 -0.417,0.097 -0.763,0.2 -1.03,0.309 -0.269,0.108 -0.498,0.296 -0.689,0.559 -0.188,0.261 -0.279,0.622 -0.267,1.083 0.012,0.51 0.173,0.889 0.487,1.138 0.311,0.249 0.669,0.343 1.071,0.285 0.399,-0.062 0.747,-0.276 1.046,-0.643 0.3,-0.367 0.447,-0.85 0.447,-1.452l0 -2.965zm6.238 1.05c0.006,-1.044 0.165,-1.883 0.473,-2.523 0.31,-0.639 0.701,-1.088 1.17,-1.346 0.469,-0.255 0.947,-0.367 1.431,-0.328 0.484,0.035 0.889,0.175 1.215,0.419 0.328,0.243 0.489,0.525 0.489,0.848l-0.009 1.202c0,0.282 -0.061,0.49 -0.184,0.622 -0.123,0.135 -0.267,0.17 -0.434,0.108 -0.165,-0.061 -0.303,-0.22 -0.411,-0.471l-0.49 -1.136c-0.173,-0.39 -0.413,-0.648 -0.727,-0.771 -0.311,-0.126 -0.631,-0.091 -0.956,0.111 -0.329,0.2 -0.605,0.575 -0.828,1.129 -0.222,0.552 -0.343,1.265 -0.36,2.136l-0.379 0zm0.414 3.024c0,0.469 0.014,0.807 0.047,1.015 0.032,0.205 0.076,0.334 0.138,0.387 0.058,0.05 0.158,0.085 0.296,0.103 0.011,0 0.02,0 0.026,0 0.109,0.023 0.161,0.064 0.159,0.129 -0.003,0.061 -0.056,0.094 -0.159,0.094l-3.352 0c-0.068,0 -0.118,-0.018 -0.147,-0.056 -0.026,-0.038 -0.029,-0.074 -0.003,-0.109 0.026,-0.032 0.076,-0.053 0.15,-0.058 0,0 0.003,0 0.008,0 0.168,-0.012 0.279,-0.042 0.341,-0.091 0.058,-0.05 0.102,-0.171 0.123,-0.364 0.023,-0.196 0.035,-0.545 0.035,-1.05l-0.009 -4.881c0,-0.419 -0.015,-0.722 -0.044,-0.906 -0.026,-0.188 -0.073,-0.308 -0.14,-0.361 -0.065,-0.055 -0.176,-0.085 -0.332,-0.091 -0.102,-0.012 -0.152,-0.044 -0.152,-0.102 0,-0.056 0.05,-0.091 0.152,-0.103 0.258,0 0.487,-0.027 0.689,-0.082 0.2,-0.056 0.434,-0.132 0.704,-0.238 0.265,-0.097 0.49,-0.17 0.684,-0.223 0.19,-0.05 0.407,-0.076 0.648,-0.076l0.138 0 0 7.063zm10.509 -7.072c0.546,0.006 1.045,0.149 1.499,0.428 0.458,0.282 0.815,0.702 1.08,1.256 0.407,-0.619 0.95,-1.074 1.627,-1.37 0.681,-0.297 1.367,-0.375 2.062,-0.241 0.698,0.135 1.273,0.525 1.728,1.168 0.454,0.645 0.683,1.537 0.683,2.678l0.009 3.153c0,0.469 0.015,0.807 0.047,1.015 0.032,0.205 0.079,0.334 0.138,0.387 0.061,0.05 0.158,0.085 0.296,0.103 0.012,0 0.021,0 0.027,0 0.108,0.023 0.161,0.064 0.158,0.129 -0.003,0.061 -0.056,0.094 -0.158,0.094l-3.353 0c-0.068,0 -0.115,-0.018 -0.141,-0.056 -0.026,-0.038 -0.026,-0.074 -0.003,-0.109 0.021,-0.032 0.071,-0.053 0.144,-0.058 0,0 0.003,0 0.009,0 0.167,-0.012 0.278,-0.042 0.34,-0.091 0.062,-0.05 0.103,-0.171 0.126,-0.364 0.021,-0.196 0.032,-0.545 0.032,-1.05l-0.008 -3.171c0,-0.956 -0.135,-1.695 -0.402,-2.217 -0.27,-0.522 -0.61,-0.836 -1.021,-0.945 -0.408,-0.108 -0.821,-0.053 -1.235,0.168 -0.416,0.22 -0.757,0.542 -1.02,0.967 0.234,0.578 0.354,1.259 0.354,2.045l0.006 3.153c0,0.469 0.018,0.807 0.05,1.015 0.029,0.205 0.076,0.334 0.135,0.387 0.061,0.05 0.161,0.085 0.296,0.103 0.012,0 0.021,0 0.027,0 0.108,0.023 0.161,0.064 0.158,0.129 -0.003,0.061 -0.056,0.094 -0.158,0.094l-3.35 0c-0.07,0 -0.117,-0.018 -0.146,-0.056 -0.03,-0.038 -0.03,-0.074 -0.006,-0.109 0.026,-0.032 0.076,-0.053 0.152,-0.058 0,0 0.003,0 0.009,0 0.164,-0.012 0.278,-0.042 0.337,-0.091 0.062,-0.05 0.103,-0.171 0.126,-0.364 0.024,-0.196 0.035,-0.545 0.035,-1.05l-0.009 -3.171c0,-0.901 -0.12,-1.607 -0.357,-2.124 -0.238,-0.513 -0.546,-0.844 -0.918,-0.985 -0.376,-0.144 -0.763,-0.141 -1.156,0.012 -0.396,0.152 -0.739,0.408 -1.032,0.768l0 5.5c0,0.469 0.014,0.807 0.047,1.015 0.032,0.205 0.076,0.334 0.138,0.387 0.058,0.05 0.158,0.085 0.295,0.103 0.012,0 0.021,0 0.027,0 0.109,0.023 0.161,0.064 0.158,0.129 -0.003,0.061 -0.055,0.094 -0.158,0.094l-3.353 0c-0.067,0 -0.117,-0.018 -0.146,-0.056 -0.027,-0.038 -0.03,-0.074 -0.003,-0.109 0.026,-0.032 0.076,-0.053 0.149,-0.058 0,0 0.004,0 0.009,0 0.167,-0.012 0.279,-0.042 0.34,-0.091 0.059,-0.05 0.103,-0.171 0.124,-0.364 0.023,-0.196 0.035,-0.545 0.035,-1.05l-0.009 -4.881c0,-0.419 -0.015,-0.722 -0.044,-0.906 -0.026,-0.188 -0.074,-0.308 -0.141,-0.361 -0.064,-0.055 -0.176,-0.085 -0.331,-0.091 -0.103,-0.012 -0.153,-0.044 -0.153,-0.102 0,-0.056 0.05,-0.091 0.153,-0.103 0.258,0 0.486,-0.027 0.689,-0.082 0.2,-0.056 0.434,-0.132 0.704,-0.238 0.264,-0.097 0.49,-0.17 0.683,-0.223 0.191,-0.05 0.408,-0.076 0.649,-0.076l0.138 0 0 1.279c0.354,-0.405 0.78,-0.725 1.276,-0.954 0.495,-0.229 0.997,-0.339 1.507,-0.334zm15.106 2.998c0,-0.986 -0.161,-1.692 -0.49,-2.121 -0.326,-0.431 -0.739,-0.648 -1.235,-0.654 -0.528,0.006 -0.935,0.191 -1.226,0.552 -0.29,0.36 -0.419,0.809 -0.387,1.352 0.032,0.542 0.252,1.038 0.657,1.49 0.071,0.082 0.097,0.147 0.082,0.193 -0.014,0.05 -0.07,0.062 -0.167,0.038 -0.681,-0.152 -1.188,-0.437 -1.516,-0.853 -0.329,-0.416 -0.443,-0.851 -0.344,-1.306 0.1,-0.457 0.432,-0.85 0.992,-1.181 0.563,-0.332 1.305,-0.499 2.235,-0.499 0.657,0 1.27,0.12 1.833,0.361 0.566,0.24 1.024,0.613 1.376,1.117 0.352,0.505 0.531,1.136 0.536,1.898l0.009 3.919c0,0.595 0.282,0.903 0.842,0.921 0.076,0 0.109,0.023 0.103,0.073 -0.006,0.047 -0.038,0.082 -0.103,0.105 -0.44,0.168 -0.909,0.285 -1.405,0.359 -0.495,0.07 -0.918,0.044 -1.267,-0.08 -0.349,-0.123 -0.525,-0.375 -0.525,-0.759l0 -0.963c-0.24,0.661 -0.648,1.15 -1.223,1.473 -0.575,0.325 -1.185,0.466 -1.83,0.425 -0.645,-0.038 -1.197,-0.243 -1.655,-0.61 -0.457,-0.366 -0.686,-0.851 -0.686,-1.452 0,-0.613 0.164,-1.073 0.493,-1.387 0.328,-0.311 0.724,-0.519 1.182,-0.622 0.457,-0.103 1.047,-0.182 1.769,-0.232 0.58,-0.047 1.02,-0.102 1.328,-0.167 0.305,-0.067 0.522,-0.185 0.649,-0.358l0.061 0.094c-0.064,0.144 -0.185,0.252 -0.361,0.329 -0.179,0.073 -0.443,0.149 -0.791,0.231 -0.417,0.097 -0.764,0.2 -1.03,0.309 -0.27,0.108 -0.499,0.296 -0.69,0.559 -0.187,0.261 -0.278,0.622 -0.267,1.083 0.012,0.51 0.174,0.889 0.487,1.138 0.311,0.249 0.669,0.343 1.071,0.285 0.399,-0.062 0.748,-0.276 1.047,-0.643 0.299,-0.367 0.446,-0.85 0.446,-1.452l0 -2.965z"/>
   <path class="fil2" d="M42.67 44.336l0 -1.116c0.48,-0.034 0.859,-0.435 0.859,-0.924 0,-0.511 -0.415,-0.926 -0.927,-0.926 -0.512,0 -0.926,0.415 -0.926,0.926 0,0.489 0.378,0.89 0.858,0.924l0 1.116c-0.243,0.034 -0.431,0.231 -0.431,0.495 0,0.264 0.223,0.499 0.499,0.499 0.276,0 0.499,-0.235 0.499,-0.499 0,-0.264 -0.188,-0.461 -0.431,-0.495z"/>
   <path class="fil2" d="M13.053 41.413l0 -2.007c0.244,-0.033 0.431,-0.242 0.431,-0.494 0,-0.276 -0.223,-0.499 -0.499,-0.499 -0.276,0 -0.499,0.223 -0.499,0.499 0,0.252 0.188,0.461 0.432,0.494l0 2.007c-0.48,0.034 -0.859,0.435 -0.859,0.923 0,0.512 0.415,0.927 0.926,0.927 0.512,0 0.927,-0.415 0.927,-0.927 0,-0.488 -0.379,-0.889 -0.859,-0.923z"/>
   <path class="fil2" d="M15.575 43.29l0 -6.697c0.244,-0.033 0.431,-0.242 0.431,-0.494 0,-0.276 -0.223,-0.499 -0.499,-0.499 -0.275,0 -0.499,0.223 -0.499,0.499 0,0.252 0.188,0.461 0.431,0.494l0 6.697c-0.61,0.035 -1.094,0.541 -1.094,1.16 0,0.642 0.52,1.162 1.162,1.162 0.642,0 1.163,-0.52 1.163,-1.162 0,-0.619 -0.484,-1.125 -1.095,-1.16z"/>
   <path class="fil2" d="M18.817 44.915l0 -7.515c0.243,-0.033 0.431,-0.242 0.431,-0.494 0,-0.276 -0.224,-0.499 -0.499,-0.499 -0.276,0 -0.499,0.223 -0.499,0.499 0,0.252 0.187,0.461 0.431,0.494l0 7.515c-0.722,0.036 -1.297,0.632 -1.297,1.364 0,0.753 0.611,1.365 1.365,1.365 0.754,0 1.365,-0.612 1.365,-1.365 0,-0.732 -0.575,-1.328 -1.297,-1.364z"/>
   <path class="fil2" d="M22.219 44.239l0 -5.265c0.243,-0.034 0.431,-0.242 0.431,-0.495 0,-0.276 -0.224,-0.499 -0.5,-0.499 -0.275,0 -0.498,0.223 -0.498,0.499 0,0.253 0.187,0.461 0.431,0.495l0 5.265c-0.611,0.035 -1.095,0.541 -1.095,1.16 0,0.642 0.52,1.162 1.162,1.162 0.643,0 1.163,-0.52 1.163,-1.162 0,-0.619 -0.484,-1.125 -1.094,-1.16z"/>
   <path class="fil2" d="M25.184 42.803l0 -2.401c0.243,-0.034 0.43,-0.242 0.43,-0.495 0,-0.275 -0.223,-0.499 -0.499,-0.499 -0.275,0 -0.499,0.224 -0.499,0.499 0,0.253 0.188,0.461 0.431,0.495l0 2.401c-0.48,0.035 -0.858,0.435 -0.858,0.924 0,0.512 0.415,0.926 0.926,0.926 0.512,0 0.926,-0.414 0.926,-0.926 0,-0.489 -0.378,-0.889 -0.857,-0.924z"/>
   <path class="fil2" d="M11.443 40.923c0.263,0 0.476,-0.213 0.476,-0.476 0,-0.264 -0.213,-0.477 -0.476,-0.477 -0.263,0 -0.477,0.213 -0.477,0.477 0,0.263 0.214,0.476 0.477,0.476z"/>
   <path class="fil2" d="M27.801 43.979l0 -1.547c0.48,-0.035 0.859,-0.436 0.859,-0.924 0,-0.512 -0.415,-0.927 -0.927,-0.927 -0.511,0 -0.926,0.415 -0.926,0.927 0,0.488 0.379,0.889 0.859,0.924l0 1.547c-0.244,0.033 -0.432,0.242 -0.432,0.494 0,0.276 0.224,0.499 0.499,0.499 0.276,0 0.5,-0.223 0.5,-0.499 0,-0.252 -0.188,-0.461 -0.432,-0.494z"/>
   <path class="fil2" d="M30.417 40.604l0 5.265c0.243,0.033 0.431,0.242 0.431,0.495 0,0.275 -0.223,0.499 -0.499,0.499 -0.276,0 -0.499,-0.224 -0.499,-0.499 0,-0.253 0.187,-0.462 0.431,-0.495l0 -5.265c-0.61,-0.035 -1.095,-0.541 -1.095,-1.16 0,-0.642 0.521,-1.162 1.163,-1.162 0.642,0 1.162,0.52 1.162,1.162 0,0.619 -0.484,1.125 -1.094,1.16z"/>
   <path class="fil2" d="M37.176 39.677l0 6.674c0.243,0.033 0.431,0.23 0.431,0.494 0,0.264 -0.223,0.499 -0.499,0.499 -0.276,0 -0.499,-0.235 -0.499,-0.499 0,-0.264 0.188,-0.461 0.431,-0.494l0 -6.674c-0.611,-0.035 -1.095,-0.541 -1.095,-1.16 0,-0.642 0.521,-1.163 1.163,-1.163 0.642,0 1.162,0.521 1.162,1.163 0,0.619 -0.484,1.125 -1.094,1.16z"/>
   <path class="fil2" d="M40.043 41.309l0 3.985c0.243,0.034 0.431,0.231 0.431,0.495 0,0.264 -0.224,0.499 -0.5,0.499 -0.275,0 -0.498,-0.235 -0.498,-0.499 0,-0.264 0.187,-0.462 0.43,-0.495l0 -3.985c-0.61,-0.035 -1.094,-0.541 -1.094,-1.16 0,-0.642 0.52,-1.162 1.162,-1.162 0.643,0 1.163,0.52 1.163,1.162 0,0.619 -0.484,1.125 -1.094,1.16z"/>
   <path class="fil2" d="M33.793 38.909l0 8.695c0.244,0.033 0.432,0.23 0.432,0.494 0,0.265 -0.224,0.5 -0.5,0.5 -0.276,0 -0.498,-0.235 -0.498,-0.5 0,-0.264 0.187,-0.461 0.431,-0.494l0 -8.695c-0.723,-0.035 -1.298,-0.632 -1.298,-1.363 0,-0.754 0.611,-1.365 1.365,-1.365 0.754,0 1.365,0.611 1.365,1.365 0,0.731 -0.574,1.328 -1.297,1.363z"/>
   <circle class="fil2" cx="12.985" cy="38.909" r="0.501"/>
   <circle class="fil0" cx="12.938" cy="42.338" r="0.993"/>
   <circle class="fil0" cx="15.507" cy="44.398" r="1.147"/>
   <circle class="fil0" cx="18.749" cy="46.268" r="1.364"/>
   <circle class="fil0" cx="22.15" cy="45.338" r="1.19"/>
   <circle class="fil0" cx="25.115" cy="43.754" r="0.927"/>
   <circle class="fil0" cx="27.734" cy="41.509" r="0.927"/>
   <circle class="fil0" cx="30.349" cy="39.394" r="1.209"/>
   <circle class="fil0" cx="33.725" cy="37.56" r="1.403"/>
   <circle class="fil0" cx="37.108" cy="38.482" r="1.219"/>
   <circle class="fil0" cx="39.974" cy="40.134" r="1.189"/>
   <circle class="fil0" cx="42.602" cy="42.262" r="0.969"/>
   <circle class="fil2" cx="11.443" cy="40.446" r="0.501"/>
   <circle class="fil2" cx="15.507" cy="36.101" r="0.534"/>
   <circle class="fil2" cx="22.15" cy="38.494" r="0.514"/>
   <circle class="fil2" cx="18.749" cy="36.921" r="0.514"/>
   <circle class="fil2" cx="25.115" cy="39.922" r="0.52"/>
   <circle class="fil2" cx="27.734" cy="44.453" r="0.52"/>
   <circle class="fil2" cx="30.349" cy="46.343" r="0.52"/>
   <circle class="fil2" cx="33.725" cy="48.078" r="0.52"/>
   <circle class="fil2" cx="37.108" cy="46.825" r="0.52"/>
   <circle class="fil2" cx="39.974" cy="45.768" r="0.52"/>
   <circle class="fil2 str0" cx="42.602" cy="44.811" r="0.52"/>
   <path class="fil2" d="M77.153 45.609c0.263,0 0.476,-0.213 0.476,-0.476 0,-0.263 -0.213,-0.476 -0.476,-0.476 -0.263,0 -0.476,0.213 -0.476,0.476 0,0.263 0.213,0.476 0.476,0.476z"/>
   <path class="fil2" d="M75.297 45.715l0 -1.116c0.48,-0.035 0.858,-0.435 0.858,-0.924 0,-0.511 -0.414,-0.926 -0.926,-0.926 -0.512,0 -0.926,0.415 -0.926,0.926 0,0.489 0.378,0.889 0.858,0.924l0 1.116c-0.244,0.033 -0.431,0.231 -0.431,0.495 0,0.264 0.223,0.499 0.499,0.499 0.276,0 0.499,-0.235 0.499,-0.499 0,-0.264 -0.188,-0.461 -0.431,-0.495z"/>
   <path class="fil2" d="M45.68 42.791l0 -2.006c0.244,-0.033 0.431,-0.242 0.431,-0.495 0,-0.275 -0.224,-0.499 -0.499,-0.499 -0.276,0 -0.499,0.224 -0.499,0.499 0,0.253 0.188,0.462 0.431,0.495l0 2.006c-0.48,0.035 -0.858,0.435 -0.858,0.924 0,0.512 0.414,0.926 0.926,0.926 0.512,0 0.926,-0.414 0.926,-0.926 0,-0.489 -0.378,-0.889 -0.858,-0.924z"/>
   <path class="fil2" d="M48.202 44.668l0 -6.696c0.244,-0.033 0.431,-0.242 0.431,-0.495 0,-0.275 -0.224,-0.499 -0.499,-0.499 -0.276,0 -0.499,0.224 -0.499,0.499 0,0.253 0.187,0.462 0.431,0.495l0 6.696c-0.611,0.035 -1.095,0.541 -1.095,1.16 0,0.642 0.521,1.163 1.163,1.163 0.642,0 1.162,-0.521 1.162,-1.163 0,-0.619 -0.484,-1.125 -1.094,-1.16z"/>
   <path class="fil2" d="M51.444 46.294l0 -7.515c0.243,-0.034 0.43,-0.242 0.43,-0.495 0,-0.275 -0.223,-0.499 -0.499,-0.499 -0.275,0 -0.499,0.224 -0.499,0.499 0,0.253 0.188,0.461 0.431,0.495l0 7.515c-0.722,0.035 -1.296,0.632 -1.296,1.363 0,0.754 0.61,1.365 1.364,1.365 0.754,0 1.365,-0.611 1.365,-1.365 0,-0.731 -0.574,-1.328 -1.296,-1.363z"/>
   <path class="fil2" d="M54.845 45.617l0 -5.265c0.244,-0.033 0.431,-0.242 0.431,-0.495 0,-0.275 -0.223,-0.498 -0.499,-0.498 -0.275,0 -0.499,0.223 -0.499,0.498 0,0.253 0.188,0.462 0.431,0.495l0 5.265c-0.61,0.035 -1.094,0.541 -1.094,1.161 0,0.641 0.52,1.162 1.162,1.162 0.642,0 1.163,-0.521 1.163,-1.162 0,-0.62 -0.484,-1.126 -1.095,-1.161z"/>
   <path class="fil2" d="M57.81 44.182l0 -2.402c0.243,-0.033 0.431,-0.242 0.431,-0.494 0,-0.276 -0.223,-0.499 -0.499,-0.499 -0.275,0 -0.499,0.223 -0.499,0.499 0,0.252 0.188,0.461 0.431,0.494l0 2.402c-0.48,0.035 -0.859,0.435 -0.859,0.924 0,0.512 0.416,0.926 0.927,0.926 0.512,0 0.926,-0.414 0.926,-0.926 0,-0.489 -0.378,-0.889 -0.858,-0.924z"/>
   <path class="fil2" d="M60.428 45.357l0 -1.547c0.48,-0.035 0.859,-0.435 0.859,-0.924 0,-0.511 -0.415,-0.926 -0.927,-0.926 -0.512,0 -0.926,0.415 -0.926,0.926 0,0.489 0.378,0.889 0.858,0.924l0 1.547c-0.243,0.033 -0.431,0.242 -0.431,0.495 0,0.275 0.223,0.499 0.499,0.499 0.276,0 0.499,-0.224 0.499,-0.499 0,-0.253 -0.187,-0.461 -0.431,-0.495z"/>
   <path class="fil2" d="M63.044 41.983l0 5.265c0.243,0.033 0.431,0.242 0.431,0.494 0,0.276 -0.224,0.499 -0.5,0.499 -0.275,0 -0.498,-0.223 -0.498,-0.499 0,-0.252 0.187,-0.461 0.431,-0.494l0 -5.265c-0.611,-0.036 -1.095,-0.542 -1.095,-1.161 0,-0.642 0.521,-1.162 1.162,-1.162 0.642,0 1.163,0.52 1.163,1.162 0,0.619 -0.484,1.125 -1.094,1.161z"/>
   <path class="fil2" d="M69.803 41.055l0 6.675c0.243,0.033 0.431,0.23 0.431,0.494 0,0.264 -0.224,0.499 -0.499,0.499 -0.276,0 -0.499,-0.235 -0.499,-0.499 0,-0.264 0.187,-0.461 0.431,-0.494l0 -6.675c-0.611,-0.035 -1.095,-0.541 -1.095,-1.16 0,-0.642 0.521,-1.162 1.163,-1.162 0.642,0 1.162,0.52 1.162,1.162 0,0.619 -0.484,1.125 -1.094,1.16z"/>
   <path class="fil2" d="M72.669 42.688l0 3.985c0.244,0.033 0.431,0.231 0.431,0.495 0,0.263 -0.223,0.499 -0.499,0.499 -0.275,0 -0.499,-0.236 -0.499,-0.499 0,-0.264 0.188,-0.462 0.431,-0.495l0 -3.985c-0.61,-0.036 -1.094,-0.541 -1.094,-1.161 0,-0.642 0.52,-1.162 1.162,-1.162 0.642,0 1.162,0.52 1.162,1.162 0,0.62 -0.483,1.125 -1.094,1.161z"/>
   <path class="fil2" d="M66.42 40.287l0 8.695c0.244,0.034 0.431,0.231 0.431,0.495 0,0.264 -0.223,0.499 -0.499,0.499 -0.276,0 -0.499,-0.235 -0.499,-0.499 0,-0.264 0.188,-0.462 0.431,-0.495l0 -8.695c-0.722,-0.035 -1.297,-0.632 -1.297,-1.362 0,-0.755 0.611,-1.366 1.365,-1.366 0.754,0 1.365,0.611 1.365,1.366 0,0.73 -0.575,1.327 -1.297,1.362z"/>
   <circle class="fil2" cx="45.612" cy="40.287" r="0.501"/>
   <circle class="fil0" cx="45.564" cy="43.641" r="0.993"/>
   <circle class="fil0" cx="48.134" cy="45.776" r="1.147"/>
   <circle class="fil0" cx="51.376" cy="47.646" r="1.364"/>
   <circle class="fil0" cx="54.777" cy="46.717" r="1.19"/>
   <circle class="fil0" cx="57.742" cy="45.133" r="0.927"/>
   <circle class="fil0" cx="60.36" cy="42.887" r="0.927"/>
   <circle class="fil0" cx="62.976" cy="40.773" r="1.209"/>
   <circle class="fil0" cx="66.352" cy="38.939" r="1.403"/>
   <circle class="fil0" cx="69.735" cy="39.861" r="1.219"/>
   <circle class="fil0" cx="72.601" cy="41.513" r="1.189"/>
   <circle class="fil0" cx="75.229" cy="43.641" r="0.969"/>
   <circle class="fil2" cx="48.134" cy="37.48" r="0.534"/>
   <circle class="fil2" cx="54.777" cy="39.873" r="0.514"/>
   <circle class="fil2" cx="51.376" cy="38.3" r="0.514"/>
   <circle class="fil2" cx="57.742" cy="41.301" r="0.52"/>
   <circle class="fil2" cx="60.36" cy="45.831" r="0.52"/>
   <circle class="fil2" cx="62.976" cy="47.722" r="0.52"/>
   <circle class="fil2" cx="66.352" cy="49.457" r="0.52"/>
   <circle class="fil2" cx="69.735" cy="48.203" r="0.52"/>
   <circle class="fil2" cx="72.601" cy="47.147" r="0.52"/>
   <circle class="fil2" cx="75.229" cy="46.189" r="0.52"/>
   <circle class="fil2 str0" cx="77.153" cy="45.133" r="0.52"/>
  </g>
 </g>
</svg>
